<?xml version="1.0" encoding="UTF-8"?>
<svg width="247px" height="256px" viewBox="0 0 247 256" version="1.1" xmlns="http://www.w3.org/2000/svg" xmlns:xlink="http://www.w3.org/1999/xlink">
    <!-- Generator: Sketch 46.2 (44496) - http://www.bohemiancoding.com/sketch -->
    <title>Group</title>
    <desc>Created with Sketch.</desc>
    <defs></defs>
    <g id="Page-1" stroke="none" stroke-width="1" fill="none" fill-rule="evenodd">
        <g id="mickey-club-du-livre" transform="translate(-50.000000, -51.000000)">
            <g id="Group" transform="translate(50.000000, 51.000000)">
                <path d="M231.80991,87.4778966 C221.44973,95.8152739 205.977586,97.4717239 193.078455,93.6626765 L192.591103,94.1929505 C203.750436,111.602738 207.486808,134.420271 205.563598,155.94362 C210.513112,158.547738 213.74117,162.758429 214.977894,168.063794 C215.96832,192.275264 193.573669,211.572513 174.661232,222.56126 C169.198164,226.10517 161.780443,225.385888 156.862371,229.672707 C146.583417,240.049802 138.379643,257.493716 121.246307,255.897644 C104.650107,255.047105 96.6166446,239.296392 86.9901148,228.205266 C63.3063362,222.282998 43.8541432,201.384427 34.2983583,179.569689 C32.7445934,172.73913 31.65722,164.874274 36.5255086,159.311648 L42.1562686,153.72277 C40.0313052,132.876701 46.1363173,113.991597 55.3672003,96.7655669 C38.131677,99.0047932 19.7563767,98.2277581 8.44769342,83.3748359 C-0.712444864,71.2441619 -2.78500476,51.6739012 4.01697436,37.3538781 C15.6453192,16.4553073 36.9263956,1.03273427 62.221583,2.79943923 C75.7757579,4.02799483 89.3351731,11.6408394 93.9702659,25.2337045 C97.3398134,39.1363337 95.1598262,54.2858944 88.7692149,66.2905627 C100.567871,61.9774925 113.660895,58.121193 128.179295,58.034564 C138.377023,58.1264432 147.901366,60.5441776 157.216095,63.9883335 C156.561051,60.441798 153.88847,57.4885393 152.981889,53.9525043 C146.952862,37.351253 150.896228,21.6215411 163.111493,8.86346367 C175.36082,-3.12545392 197.084706,-1.46637883 211.36467,5.09379307 L223.325777,10.9845597 C239.311476,21.8131747 249.490863,40.2861358 246.469799,59.8117695 C244.874111,70.6036329 240.430292,80.2325687 231.80991,87.4778966 L231.80991,87.4778966 Z M210.872076,179.727197 C210.814433,172.0671 211.794379,164.884775 204.206347,160.086058 C198.156358,155.486849 190.612869,157.841581 183.52005,158.896879 C179.786298,161.091478 175.793149,163.039316 172.006993,163.963358 C182.558445,135.451943 184.583842,103.968893 166.965773,78.1455992 C161.544627,70.2019897 152.10413,63.6969453 141.992867,65.6447835 C134.457239,68.2515264 127.626438,75.6806126 124.613234,82.9495666 L123.848143,82.981068 C121.827986,77.1926811 119.299516,71.4279202 113.535127,67.579496 C106.206492,62.7755286 96.949407,66.983594 90.4828105,70.8241429 C72.2463796,85.8686987 64.5351992,109.158753 67.7291947,131.238627 C68.9501972,142.421633 72.1887357,153.008737 74.8953784,163.110194 C67.8078,158.038465 59.1743173,152.52309 49.3067313,154.203166 C44.2497899,155.177085 40.1046702,159.684414 38.5116026,164.344 C34.6966251,177.007573 41.8313667,189.476888 48.6097642,199.412962 C58.4694897,209.979066 69.0916867,220.521543 82.7401879,224.044452 C81.3645951,221.553214 79.022157,220.374536 76.9233953,218.922845 C77.1461104,218.148435 77.9295432,218.631457 78.429997,218.353195 C94.8296839,226.86908 98.830694,249.930749 119.082041,252.926009 C137.328953,256.771808 144.982489,238.332974 156.275451,227.916502 C159.21267,224.989495 162.375223,221.288077 165.904601,220.374536 L162.765629,224.587852 C172.368578,222.661015 180.818648,217.460654 188.440742,210.769226 C198.284747,202.192963 207.544452,191.857871 210.872076,179.727197 L210.872076,179.727197 Z" id="Shape" fill="#000000" fill-rule="nonzero"></path>
                <path d="M198,186.717429 C194.381552,185.593939 190.435107,182.706833 186.137052,183.644816 C181.277468,195.783727 169.758259,207.180613 158.54343,213.73343 C153.159053,219.290784 147.018974,225.127703 143.718025,231.615202 C137.651417,239.234028 131.128239,248.133109 120.049856,245.541245 C102.010093,241.198828 100.060487,218.66372 84.1566317,210.423056 C74.6631245,202.932255 66.6127982,193.353855 62.0680899,182.105897 C59.2132154,180.953667 56.2297666,182.850535 54.0020199,184.467837 C53.9285489,182.691156 55.8729073,180.32399 57.6230923,179.49313 C61.8476768,176.778467 67.769967,178.063947 71.4618865,180.958892 C71.9814317,181.194041 71.7374029,181.457931 71.7583946,181.964807 C69.2000282,181.81588 66.3136662,179.903335 63.5742461,181.536314 C70.3309574,203.112536 92.0678878,216.706758 113.833682,218.608852 C138.742987,222.420878 163.689027,214.796826 178.887035,193.599455 C180.534885,190.226374 184.26354,187.78605 184.347507,183.720586 C183.011909,182.249599 180.49815,183.11965 178.724349,183.44102 C178.490816,183.960961 177.958151,183.477599 177.462222,183.746714 C178.417345,182.18428 180.679204,181.332518 182.439884,180.752484 C186.186907,178.819037 190.101864,180.945828 193.720312,182.069318 C195.562336,183.258126 196.667026,185.249054 198,186.717429 L198,186.717429 Z" id="Shape" fill="#000000" fill-rule="nonzero"></path>
                <path d="M129.708847,164.060904 C118.173283,162.253788 105.540216,164.79366 95,168.522629 C107.114438,159.661763 124.923317,159.187167 138.884388,164.193895 C143.829698,166.780705 148.520932,169.377945 153,173 C145.765389,170.504459 137.938807,166.006227 129.708847,164.060904 L129.708847,164.060904 Z" id="Shape" fill="#000000" fill-rule="nonzero"></path>
                <path d="M138.639882,159.708638 C135.660852,160.855844 134.040177,158.361461 132.455863,156.63539 C125.069324,142.616326 124.47196,121.658772 135.094655,109.447347 C137.037387,107.579191 140.032001,106.684581 142.322763,107.100311 C150.545612,110.597184 151.67541,119.761673 153,127.639503 C152.488345,139.945652 150.758585,153.317439 138.639882,159.708638 L138.639882,159.708638 Z M149.293744,142.12429 C151.15856,132.067822 151.833841,117.454106 143.221406,110.649808 C141.920191,109.678893 139.64761,109.776247 138.429506,110.849779 C127.435406,120.006375 128.349633,136.3409 131.448136,150.538886 L131.951999,150.517837 C131.240357,145.434347 132.525989,139.750943 136.951679,136.751368 C139.411261,135.11739 141.520217,137.332865 142.862988,139.322056 C145.068041,143.834574 144.51483,148.978581 143.45256,153.880517 C147.135441,151.167744 147.948376,146.271071 149.293744,142.12429 L149.293744,142.12429 Z" id="Shape" fill="#000000" fill-rule="nonzero"></path>
                <path d="M140.435239,192.65527 C128.265112,198.472209 111.228497,196.640081 101.998052,187.641027 C101.125782,184.886321 100.21185,181.125639 102.141261,178.764463 C107.65349,171.190975 116.902161,168.274688 126.559628,169.150356 C133.930965,169.856624 142.195403,173.828405 144.791384,181.576504 C145.460559,185.60562 144.650779,190.450463 140.435239,192.65527 L140.435239,192.65527 Z M132.946731,176.744692 C131.853138,174.758802 129.27278,173.599063 126.734082,173.450512 C123.711079,173.828405 119.362745,172.739032 118.243114,176.330314 C120.693283,180.539254 126.275815,180.815507 130.816829,180.377673 C132.058838,179.817349 133.787756,178.733189 132.946731,176.744692 L132.946731,176.744692 Z" id="Shape" fill="#000000" fill-rule="nonzero"></path>
                <path d="M109.586645,158.325053 C108.335751,159.131912 105.767849,159.233094 104.453485,158.532605 C92.9494944,147.890368 90.3128326,127.814884 95.6390481,113.724687 C97.0644851,110.894194 99.2594994,108.029974 102.276983,106.395501 C105.069676,105.52897 108.182365,106.15941 110.554567,107.575954 C122.367975,119.463504 120.170316,140.740196 113.786263,154.116933 L109.586645,158.325053 L109.586645,158.325053 Z M108.602855,110.178139 C106.518914,109.506189 104.710011,109.324581 102.686895,110.165167 C96.3636672,112.692115 95.8797063,119.520581 94.8245126,125.116706 C94.7345964,135.211525 94.7055058,146.813691 101.951698,154.090989 C101.494183,149.317289 100.751051,143.798996 102.872017,139.173177 C103.837294,137.616536 105.291822,135.541014 107.624355,135.956118 C112.083143,138.044612 113.566761,142.776801 114.246422,146.785153 C117.356467,135.050672 118.974959,118.340128 108.602855,110.178139 L108.602855,110.178139 Z" id="Shape" fill="#000000" fill-rule="nonzero"></path>
                <path d="M138,235.860469 C138,235.860469 134.14768,229.540697 131.989643,228.245771 C126.645932,225.04984 123.73693,225.909564 122.348303,226.916135 C122.464241,226.964195 122.577545,227.009584 122.696118,227.068323 C123.73693,227.572943 124.941109,228.560825 126.04516,229.8958 C127.128131,231.204076 128.132053,232.867455 128.793429,234.74443 C129.728842,237.39836 129.994974,240.495503 128.875113,243.662064 C133.091059,241.918586 134.758992,238.765375 138,235.860469 L138,235.860469 Z M120.935961,228.114943 C118.822719,228.203051 112.659534,225.03382 107.94031,230.528578 C106.496348,232.213317 105.58992,234.544183 106.185422,236.114114 C107.439666,239.414173 117.634349,244.95966 119.961024,244.994369 C122.870026,245.042428 125.138732,244.780773 126.988478,244.289502 L126.985843,244.289502 C128.493043,241.098911 128.319135,237.92701 127.373183,235.25172 C126.775046,233.550962 125.868617,232.05045 124.891045,230.864992 C123.929282,229.700894 122.906916,228.851849 122.045282,228.435337 C121.570988,228.205721 121.191553,228.117613 120.967581,228.200382 L120.935961,228.114943 L120.935961,228.114943 Z" id="Shape" fill="#ED1C24"></path>
            </g>
        </g>
    </g>
</svg>